<svg id="Layer_1" height="512" viewBox="0 0 128 128" width="512" xmlns="http://www.w3.org/2000/svg" data-name="Layer 1"><path transform="rotate(180 50 31)" d="m55 24h-10a2 2 0 0 0 0 4h5.17l-6.58 6.59a2 2 0 0 0 2.82 2.82l6.59-6.58v5.17a2 2 0 0 0 4 0v-10a2 2 0 0 0 -2-2z"/><path d="m125.54 80c0-1.11-.21-3.92-1.61-5.32-3.55-3.54-23.87-8.72-31.26-10.78-1.89-1-15.1-8.26-19.32-10.06a40.28 40.28 0 0 0 -8.78-1.7l-31.72-15a2 2 0 0 0 -1.7 3.62l22.2 10.48c-9.9-.42-20.82-.08-30.61 1.87-5.66 1.13-13.53 8-15.83 10.26-2.62 2.63-2.16 7.41-2.91 8.99-2.07 4.12-1.73 5.79-1.91 8.91s.1 5.82 5.52 8a29.46 29.46 0 0 0 6 1.33 11.51 11.51 0 0 0 21.39 1.23l58 1.71a11.51 11.51 0 0 0 18.87.14 54.57 54.57 0 0 0 10-1.24 2 2 0 0 0 1-.53 14.46 14.46 0 0 0 2.43-3.6c1.23-2.4.49-6.97.24-8.31zm-101 14.5a7.54 7.54 0 1 1 7.52-7.5 7.54 7.54 0 0 1 -7.53 7.53zm78 0a7.54 7.54 0 1 1 7.52-7.5 7.54 7.54 0 0 1 -7.53 7.53zm19.23-8a13.63 13.63 0 0 1 -1.35 2.16 54.44 54.44 0 0 1 -6.66.91 11.53 11.53 0 1 0 -22.48-.1l-55.28-1.61a11.52 11.52 0 1 0 -23-1.39 21.67 21.67 0 0 1 -3.95-.91c-3.19-1.28-3.15-1.93-3-4 .18-3-.2-4 1.49-7.36 1.16-2.31.82-6.52 2.2-7.9 2.52-2.51 9.49-8.31 13.79-9.17 18-3.58 44-1.36 48.26.46s19 9.93 19.16 10a2.26 2.26 0 0 0 .43.17c7.13 2 26.49 7 29.7 9.79.44.6.46 2.86.51 3.11.41 2.12.59 5 .17 5.86z"/></svg>
