<svg viewBox="0 0 24 24" fill="none" xmlns="http://www.w3.org/2000/svg"><path fill="currentColor" d="m19.71 12 2.15-2.15c.2-.2.2-.51 0-.71s-.51-.2-.71 0l-2.15 2.15-2.15-2.15c-.2-.2-.51-.2-.71 0s-.2.51 0 .71l2.15 2.15-2.15 2.15c-.2.2-.2.51 0 .71.1.1.23.15.35.15s.26-.05.35-.15l2.15-2.15 2.15 2.15c.1.1.23.15.35.15s.26-.05.35-.15c.2-.2.2-.51 0-.71l-2.15-2.15z"/><path fill="currentColor" d="m12.55 4.9c-.62-.47-1.43-.52-2.1-.15l-4.07 2.27c-.38.21-.82.33-1.26.33h-1c-.57 0-1.13.27-1.52.73-.38.45-.59 1.04-.59 1.67v4.5c0 .63.21 1.22.59 1.67.4.47.95.74 1.52.74h.42c.82 0 1.62.21 2.34.61l3.58 1.99c.29.16.61.24.93.24.41 0 .82-.13 1.17-.39.6-.44.95-1.2.95-2.01v-10.19c0-.81-.36-1.57-.95-2.01zm-8.43 10.75c-.28 0-.55-.14-.76-.38-.23-.26-.35-.64-.35-1.02v-4.5c0-.39.13-.76.35-1.02.21-.25.48-.38.76-.38h.51v7.32s-.06 0-.08 0h-.42zm8.38 1.44c0 .49-.21.96-.55 1.21-.31.23-.68.26-1.01.08l-3.57-1.99c-.54-.3-1.13-.5-1.74-.62v-7.46c.43-.06.86-.2 1.24-.42l4.07-2.27c.33-.18.7-.16 1.01.08.34.25.55.72.55 1.21v10.19z"/></svg>
