<svg id="Layer_1" height="512" viewBox="0 0 128 128" width="512" xmlns="http://www.w3.org/2000/svg" data-name="Layer 1"><path d="m115.43 12.44-9.77-2.17a11.15 11.15 0 0 0 -13.09 7.73l-16.25 55.58-51.24-6.31a12.84 12.84 0 0 0 -12.96 18.73l13.56 25.94a2 2 0 0 0 1.77 1.06h60.38a2 2 0 0 0 1.92-1.46l27.18-96.61a2 2 0 0 0 -1.5-2.49zm-29.12 96.56h-57.65l-13-24.87a8.85 8.85 0 0 1 8.93-12.89l52.93 6.52a2 2 0 0 0 2.17-1.42l16.72-57.21a7.14 7.14 0 0 1 8.38-5l7.71 1.71z"/><path d="m31.89 57.49a12.5 12.5 0 0 0 11.53 1.43c8.19-2.77 10-12.45 10.4-16.8 3.6.36 11.26 1.81 13.24 7.68a8.51 8.51 0 0 1 -.85 7.87 5.87 5.87 0 0 1 -9.84-.58 2 2 0 0 0 -3.52 1.91 9.88 9.88 0 0 0 16.58 1 12.48 12.48 0 0 0 1.42-11.53c-2.76-8.19-12.45-10-16.79-10.4.35-3.6 1.8-11.26 7.68-13.24a8.51 8.51 0 0 1 7.87.85 5.87 5.87 0 0 1 -.61 9.88 2 2 0 1 0 1.9 3.52 9.86 9.86 0 0 0 1-16.57 12.49 12.49 0 0 0 -11.52-1.43c-8.19 2.77-10 12.45-10.41 16.8-3.59-.36-11.26-1.81-13.24-7.68a8.54 8.54 0 0 1 .86-7.87 5.86 5.86 0 0 1 9.83.58 2 2 0 0 0 3.58-1.91 9.86 9.86 0 0 0 -16.55-1 12.43 12.43 0 0 0 -1.45 11.48c2.77 8.19 12.45 10 16.8 10.41-.36 3.59-1.81 11.25-7.68 13.24a8.56 8.56 0 0 1 -7.88-.86 5.87 5.87 0 0 1 .58-9.83 2 2 0 1 0 -1.9-3.52 9.87 9.87 0 0 0 -1.03 16.57z"/></svg>