<svg id="Layer_1" height="512" viewBox="0 0 128 128" width="512" xmlns="http://www.w3.org/2000/svg" data-name="Layer 1"><path d="m87.83 113h-60.38a2 2 0 0 1 -1.77-1.07l-13.56-25.93a12.85 12.85 0 0 1 13-18.72l51.24 6.31 16.21-55.59a11.15 11.15 0 0 1 13.09-7.73l9.77 2.17a2 2 0 0 1 1.5 2.49l-27.18 96.61a2 2 0 0 1 -1.92 1.46zm-59.17-4h57.65l26.19-93.12-7.71-1.71a7.14 7.14 0 0 0 -8.38 5l-16.72 57.17a2 2 0 0 1 -2.17 1.42l-52.93-6.52a8.85 8.85 0 0 0 -8.93 12.89z"/><path d="m74.67 57.32-8.73-8.73a2.06 2.06 0 0 0 -2.83 0l-8.73 8.73a2 2 0 1 0 2.83 2.82l5.21-5.21c-.43 8.27-2.18 8.25-2.18 15.65 0 8.76 5.35 9.23 5.35 16.47s-5.35 7.67-5.35 16.47 5.35 9.12 5.35 16.48a2 2 0 0 0 4 0c0-8.76-5.35-9.24-5.35-16.48s5.35-7.61 5.35-16.47-5.35-9.24-5.35-16.47c0-6.67 1.78-6.86 2.19-15.84l5.41 5.4a2 2 0 0 0 2.83-2.82z"/><path d="m39.89 48.59a2 2 0 0 0 -1.41-.59 2 2 0 0 0 -1.42.59l-8.73 8.73a2 2 0 1 0 2.83 2.82l5.21-5.21c-.43 8.25-2.17 8.24-2.17 15.65 0 8.76 5.34 9.23 5.34 16.47s-5.34 7.67-5.34 16.47 5.34 9.12 5.34 16.48a2 2 0 0 0 4 0c0-8.76-5.34-9.24-5.34-16.48s5.34-7.61 5.34-16.47-5.34-9.24-5.34-16.47c0-6.84 1.77-6.73 2.19-15.84l5.4 5.4a2 2 0 1 0 2.83-2.82z"/></svg>