<svg id="Layer_1" height="512" viewBox="0 0 128 128" width="512" xmlns="http://www.w3.org/2000/svg" data-name="Layer 1"><path d="m86.17 14.05-7.47-7.46a2 2 0 0 0 -2.83 0l-7.46 7.46a2 2 0 1 0 2.82 2.83l4.14-4.14c-.16 7.26-1.51 9.91-4.37 16.75-2.9 7.1-.87 16.06 4.73 20.85a2 2 0 0 0 2.6-3c-4.33-3.76-5.87-10.76-3.59-16.34 3-7.13 4.43-10.2 4.62-18.1l4 4a2 2 0 0 0 2.83-2.83z"/><path d="m53.19 6.59a2 2 0 0 0 -2.83 0l-7.47 7.46a2 2 0 0 0 2.83 2.83l4.14-4.13c-.17 7.26-1.54 10-4.34 16.74-2.9 7.1-.86 16.06 4.74 20.85a2 2 0 1 0 2.6-3c-4.35-3.76-5.86-10.76-3.63-16.34 2.94-7.13 4.42-10.2 4.62-18.1l4 4a2 2 0 0 0 2.82-2.83z"/><path d="m64 126.25a50.75 50.75 0 1 1 50.75-50.75 50.81 50.81 0 0 1 -50.75 50.75zm0-97.5a46.75 46.75 0 1 0 46.75 46.75 46.8 46.8 0 0 0 -46.75-46.75zm-15.75 81.66a38.25 38.25 0 0 1 -21.09-24.36 4.19 4.19 0 0 1 4-5.32h3.84a12.59 12.59 0 0 1 11.64 7.71c1.38 3.41 4.57 10.93 7 16.64a4.09 4.09 0 0 1 -5.44 5.33zm-17-25.68a.2.2 0 0 0 -.25.27 34.25 34.25 0 0 0 18.9 21.81l.12-.05c-2.45-5.79-5.66-13.33-7.05-16.77a8.57 8.57 0 0 0 -7.97-5.26zm44 24.87a4.07 4.07 0 0 1 -.9-4.53c2.43-5.69 5.62-13.2 7-16.63a12.59 12.59 0 0 1 11.65-7.71h3.8a4.19 4.19 0 0 1 4 5.32 38.25 38.25 0 0 1 -21.09 24.36 4.07 4.07 0 0 1 -4.5-.81zm17.75-24.87a8.57 8.57 0 0 0 -8 5.21c-1.4 3.46-4.6 11-7 16.71l.07.13a34.25 34.25 0 0 0 18.93-21.78.2.2 0 0 0 -.2-.22zm4.35-11.9c-7.08-1.21-8-.92-17-1.22a5.88 5.88 0 0 1 -4.35-2.18 15.35 15.35 0 0 0 -23.84 0 5.88 5.88 0 0 1 -4.35 2.18c-9 .3-9.92 0-17 1.22a3.78 3.78 0 0 1 -4.36-4.41 38.32 38.32 0 0 1 75.34 0 3.78 3.78 0 0 1 -4.48 4.41zm-18.35-5.93a1.87 1.87 0 0 0 1.39.71c9.09.31 10.06 0 17.27 1.22a34.33 34.33 0 0 0 -67.36 0c7.2-1.2 8.09-.91 17.27-1.22a1.87 1.87 0 0 0 1.43-.71 19.34 19.34 0 0 1 30 0z"/></svg>