<svg width="128" height="128" viewBox="0 0 128 128" fill="none" xmlns="http://www.w3.org/2000/svg">
  <rect width="128" height="128" rx="24" fill="rgba(128,128,128,0.08)"/>
  <path d="M78 36V78.5C78 86.508 71.508 93 63.5 93C55.492 93 49 86.508 49 78.5C49 70.492 55.492 64 63.5 64C67.02 64 70.28 65.18 72.8 67.2V44.8L52 50.4V72.2C52 80.208 45.508 86.7 37.5 86.7C29.492 86.7 23 80.208 23 72.2C23 64.192 29.492 57.7 37.5 57.7C41.02 57.7 44.28 58.88 46.8 60.9V38L78 30V36Z" fill="rgba(128,128,128,0.42)"/>
</svg>
